<?xml version="1.0" encoding="utf-8"?>
<svg width="100%" height="100%" viewBox="0 0 1284 500" version="1.1" style="fill-rule:evenodd;clip-rule:evenodd;stroke-linejoin:round;stroke-miterlimit:2;" xmlns="http://www.w3.org/2000/svg">
  <path d="M -0.002 140.106 L -0.002 359.628 L 27.138 359.628 L 27.138 270.09 L 47.626 270.09 L 115.612 359.628 L 150.077 359.628 L 77.701 267.695 C 112.29 262.506 133.445 239.357 133.445 204.499 C 133.445 164.719 105.902 140.106 62.269 140.106 L -0.002 140.106 Z M 27.138 161.925 L 54.944 161.925 C 86.613 161.925 105.368 178.024 105.368 204.499 C 105.368 230.975 86.613 247.073 54.944 247.073 L 27.138 247.073 L 27.138 161.925 Z" style="fill:rgb(255,85,85);fill-rule:nonzero;"/>
  <path d="M 166.036 250 C 166.036 313.329 215.268 363.886 276.734 363.886 C 338.2 363.886 387.424 313.329 387.424 250 C 387.424 186.671 338.2 136.116 276.734 136.116 C 215.268 136.116 166.036 186.671 166.036 250 Z M 195.306 250 C 195.306 200.375 230.561 162.325 276.734 162.325 C 322.899 162.325 358.154 200.375 358.154 250 C 358.154 299.625 322.899 337.676 276.734 337.676 C 230.561 337.676 195.306 299.625 195.306 250 Z" style="fill:rgb(255,85,85);fill-rule:nonzero;"/>
  <path d="M 530.178 363.886 C 557.45 363.886 582.461 355.504 600.557 341.801 L 586.99 319.715 C 572.619 331.023 552.928 337.144 531.905 337.144 C 478.957 337.144 443.965 299.093 443.965 250 C 443.965 200.907 478.957 162.857 531.905 162.857 C 552.928 162.857 572.619 168.977 586.99 180.285 L 600.557 158.2 C 582.461 144.497 557.45 136.116 530.178 136.116 C 463.254 136.116 414.432 185.874 414.432 250 C 414.432 314.128 463.254 363.886 530.178 363.886 Z" style="fill:rgb(255,85,85);fill-rule:nonzero;"/>
  <path d="M 661.357 359.628 L 661.357 262.108 L 762.073 359.628 L 799.853 359.628 L 685.438 247.872 L 788.145 140.106 L 754.353 140.106 L 661.357 237.894 L 661.357 140.106 L 634.217 140.106 L 634.217 359.628 L 661.357 359.628 Z" style="fill:rgb(255,85,85);fill-rule:nonzero;"/>
  <path d="M 821.944 140.106 L 821.944 359.628 L 849.084 359.628 L 849.084 186.006 L 960.038 359.628 L 987.178 359.628 L 987.178 140.106 L 960.038 140.106 L 960.038 313.861 L 849.084 140.106 L 821.944 140.106 Z" style="fill:rgb(85,85,85);fill-rule:nonzero;"/>
  <rect x="1034.814" y="140.106" width="27.141" height="219.521" style="fill:rgb(85,85,85);fill-rule:nonzero;"/>
  <path d="M 1116.9 359.628 L 1183.554 264.768 L 1250.208 359.628 L 1284 359.628 L 1200.45 241.219 L 1270.96 140.106 L 1238.369 140.106 L 1183.554 218.469 L 1128.74 140.106 L 1096.141 140.106 L 1166.658 241.219 L 1083.109 359.628 L 1116.9 359.628 Z" style="fill:rgb(85,85,85);fill-rule:nonzero;"/>
</svg>
